<svg xmlns="http://www.w3.org/2000/svg"  viewBox="0 0 48 48" width="144px" height="144px"><path d="M 13.5 6 C 9.364 6 6 9.364 6 13.5 L 6 34.5 C 6 38.636 9.364 42 13.5 42 L 34.5 42 C 38.636 42 42 38.636 42 34.5 L 42 13.5 C 42 9.364 38.636 6 34.5 6 L 13.5 6 z M 24 12.158203 C 24.129 12.158203 24.257234 12.19825 24.365234 12.28125 L 31 17.384766 L 31 15.5 C 31 15.224 31.224 15 31.5 15 L 33.5 15 C 33.776 15 34 15.224 34 15.5 L 34 19.691406 L 35.601562 20.923828 C 36.055563 21.273828 35.809328 22 35.236328 22 L 34 22 L 34 34.5 C 34 34.776 33.776 35 33.5 35 L 14.5 35 C 14.224 35 14 34.776 14 34.5 L 14 22 L 12.763672 22 C 12.190672 22 11.944438 21.274781 12.398438 20.925781 L 23.634766 12.28125 C 23.742766 12.19825 23.871 12.158203 24 12.158203 z M 24 14.523438 L 16 20.677734 L 16 33 L 32 33 L 32 20.677734 L 24 14.523438 z M 24 18.308594 L 29 22.154297 L 29 30 L 19 30 L 19 22.154297 L 24 18.308594 z M 24 20.832031 L 21 23.138672 L 21 28 L 27 28 L 27 23.138672 L 24 20.832031 z"/></svg>